<svg width="18" height="19" viewBox="0 0 18 19" fill="none" xmlns="http://www.w3.org/2000/svg">
<g opacity="0.5">
<path d="M1.34802 5.78964L1.85948 5.24116C1.93438 5.16471 2.02331 5.10406 2.12119 5.06269C2.21907 5.02131 2.32399 5.00002 2.42994 5.00002C2.5359 5.00002 2.64081 5.02131 2.7387 5.06269C2.83658 5.10406 2.92551 5.16471 3.00041 5.24116L9.07884 11.1808L14.9802 5.2746C15.0546 5.19836 15.1429 5.13785 15.2403 5.09657C15.3376 5.05528 15.442 5.03403 15.5474 5.03403C15.6528 5.03403 15.7572 5.05528 15.8545 5.09657C15.9519 5.13785 16.0403 5.19836 16.1146 5.2746L16.6392 5.81639C16.7139 5.89223 16.7732 5.98238 16.8137 6.08167C16.8542 6.18097 16.875 6.28744 16.875 6.39498C16.875 6.50251 16.8542 6.60898 16.8137 6.70828C16.7732 6.80757 16.7139 6.89772 16.6392 6.97356L9.93781 13.6624C9.7178 13.879 9.42395 14 9.11818 14C8.8124 14 8.51856 13.879 8.29854 13.6624L1.37425 6.9468C1.29776 6.87275 1.23639 6.784 1.19365 6.68566C1.15091 6.58732 1.12765 6.48133 1.12521 6.37379C1.12277 6.26624 1.1412 6.15927 1.17944 6.05902C1.21768 5.95877 1.27497 5.86722 1.34802 5.78964Z" fill="#75767C"/>
</g>
</svg>
