<svg width="18" height="19" viewBox="0 0 18 19" fill="none" xmlns="http://www.w3.org/2000/svg">
<g opacity="0.5">
<path d="M16.652 13.2104L16.1405 13.7589C16.0656 13.8353 15.9767 13.896 15.8788 13.9373C15.7809 13.9787 15.676 14 15.5701 14C15.4641 14 15.3592 13.9787 15.2613 13.9373C15.1634 13.896 15.0745 13.8353 14.9996 13.7589L8.92116 7.81921L3.01978 13.7254C2.94544 13.8017 2.85706 13.8622 2.75972 13.9034C2.66239 13.9447 2.55801 13.966 2.45259 13.966C2.34718 13.966 2.2428 13.9447 2.14546 13.9034C2.04812 13.8622 1.95974 13.8017 1.8854 13.7254L1.36084 13.1836C1.28609 13.1078 1.22678 13.0176 1.18631 12.9183C1.14584 12.819 1.125 12.7126 1.125 12.605C1.125 12.4975 1.14584 12.391 1.18631 12.2917C1.22678 12.1924 1.28609 12.1023 1.36084 12.0265L8.06219 5.33766C8.2822 5.12105 8.57605 5 8.88182 5C9.1876 5 9.48144 5.12105 9.70146 5.33766L16.6257 12.0532C16.7022 12.1273 16.7636 12.216 16.8064 12.3144C16.8491 12.4127 16.8724 12.5187 16.8748 12.6262C16.8772 12.7338 16.8588 12.8407 16.8206 12.941C16.7823 13.0412 16.725 13.1328 16.652 13.2104Z" fill="#75767C"/>
</g>
</svg>
