<svg width="18" height="18" viewBox="0 0 18 18" fill="none" xmlns="http://www.w3.org/2000/svg">
<g clip-path="url(#clip0_479_9)">
<path d="M17.7374 16.5L11.6324 10.395C12.3781 9.40256 12.8227 8.2166 12.9132 6.97853C13.0036 5.74045 12.7361 4.50248 12.1426 3.41219C11.549 2.32191 10.6544 1.42531 9.56552 0.829283C8.47658 0.233257 7.23922 -0.0370525 6.00094 0.0505797C4.76266 0.138212 3.5757 0.580089 2.58156 1.32353C1.58743 2.06698 0.828051 3.08062 0.393967 4.24363C-0.040118 5.40664 -0.130599 6.66995 0.13331 7.88295C0.397219 9.09595 1.00438 10.2075 1.88242 11.085C2.98238 12.1975 4.45109 12.8695 6.01201 12.9744C7.57294 13.0794 9.1184 12.6102 10.3574 11.655L16.4999 17.7375C16.6716 17.8518 16.8775 17.9031 17.0827 17.8827C17.2879 17.8623 17.4797 17.7715 17.6256 17.6256C17.7714 17.4798 17.8622 17.288 17.8826 17.0828C17.903 16.8776 17.8517 16.6717 17.7374 16.5ZM9.80242 9.825C8.90781 10.6804 7.71772 11.1579 6.47992 11.1579C5.24213 11.1579 4.05204 10.6804 3.15742 9.825C2.50156 9.1681 2.05515 8.33152 1.87459 7.42098C1.69404 6.51044 1.78745 5.56682 2.14302 4.70935C2.4986 3.85189 3.10037 3.11907 3.8723 2.6035C4.64422 2.08794 5.55166 1.81277 6.47992 1.81277C7.40819 1.81277 8.31563 2.08794 9.08755 2.6035C9.85948 3.11907 10.4613 3.85189 10.8168 4.70935C11.1724 5.56682 11.2658 6.51044 11.0853 7.42098C10.9047 8.33152 10.4583 9.1681 9.80242 9.825Z" fill="#75767C"/>
</g>
<defs>
<clipPath id="clip0_479_9">
<rect width="18" height="18" fill="white"/>
</clipPath>
</defs>
</svg>
